PathFileType        4      (X/Y/Z)      C:\Users\aurel\Documents\opensim-MSc\data\transformed_83_35.trc
DataRate	CameraRate	NumFrames	NumMarkers	Units	OrigDataRate	OrigDataStartFrame	OrigNumFrames
120.0	120.0	5	41	mm	120.0	787	1048
Frame#	Time	LFWT			RFWT			LBWT			RBWT			LTHI			LKNE			LSHN			LANK			LHEE			LMT5			LTOE			RTHI			RKNE			RSHN			RANK			RHEE			RMT5			RTOE			CLAV			STRN			C7			T10			RBAC			LFHD			RFHD			LBHD			RBHD			LSHO			LUPA			LELB			LFRM			LWRA			LWRB			LFIN			RSHO			RUPA			RELB			RFRM			RWRA			RWRB			RFIN
		X1	Y1	Z1	X2	Y2	Z2	X3	Y3	Z3	X4	Y4	Z4	X5	Y5	Z5	X6	Y6	Z6	X7	Y7	Z7	X8	Y8	Z8	X9	Y9	Z9	X10	Y10	Z10	X11	Y11	Z11	X12	Y12	Z12	X13	Y13	Z13	X14	Y14	Z14	X15	Y15	Z15	X16	Y16	Z16	X17	Y17	Z17	X18	Y18	Z18	X19	Y19	Z19	X20	Y20	Z20	X21	Y21	Z21	X22	Y22	Z22	X23	Y23	Z23	X24	Y24	Z24	X25	Y25	Z25	X26	Y26	Z26	X27	Y27	Z27	X28	Y28	Z28	X29	Y29	Z29	X30	Y30	Z30	X31	Y31	Z31	X32	Y32	Z32	X33	Y33	Z33	X34	Y34	Z34	X35	Y35	Z35	X36	Y36	Z36	X37	Y37	Z37	X38	Y38	Z38	X39	Y39	Z39	X40	Y40	Z40	X41	Y41	Z41
787	6.55	881.7564700000001	1227.01367	438.18300999999997	872.3185400000001	1193.17151	700.1094999999999	718.3866000000002	1285.85608	476.62066999999996	721.8102400000001	1283.51953	616.1670499999999	1014.4380500000001	1041.4967	388.97103999999996	1130.0596900000003	942.2728899999998	431.93953999999997	1079.84692	699.5001199999999	413.68883999999997	1029.07947	574.1438599999999	431.4708299999999	970.9079600000001	562.3509499999999	476.68444999999997	1121.24707	531.0242899999998	408.95424999999994	1162.86646	547.2100799999998	494.00704999999994	792.5802600000001	982.10095	713.0331999999999	778.4332300000001	757.02045	673.64575	718.5877700000001	656.71057	694.40857	607.05304	406.9309099999999	634.67786	534.99896	378.31228999999996	586.15735	701.34753	360.25963999999993	667.8028	744.05438	378.63662999999997	591.2522	951.4701500000002	1605.9552	532.2255199999998	924.6831100000003	1429.86865	542.4288299999998	852.7244900000002	1720.18506	533.2792999999999	728.8198900000002	1529.28162	552.6428199999999	760.1057100000003	1617.2113	627.3905599999999	1103.3591300000003	1782.88257	443.1454199999999	1093.6638200000002	1790.03931	606.5846599999999	952.1174900000002	1820.37866	468.4723499999999	950.4227900000002	1825.77063	580.0004899999999	878.9160800000002	1692.88342	390.8571499999999	780.4621000000002	1496.96472	312.5941499999999	736.5352800000002	1408.03003	305.0852999999999	708.6212800000001	1242.09705	286.8782299999999	821.2062400000001	1129.59692	305.14361999999994	689.9215100000001	1139.53479	242.49566999999993	767.4544700000001	1069.9707	261.99547999999993	898.6160900000002	1695.27625	685.8500399999999	854.9865700000003	1590.427	766.9447599999999	770.9082000000002	1407.20642	793.9806499999999	768.4223600000001	1330.35876	790.4825999999999	963.8454600000001	1175.91809	789.6401999999999	840.7736800000001	1135.55139	850.4573999999999	876.0112300000001	1104.17395	835.1378799999999
788	6.558	885.9031400000001	1228.51001	436.90243999999996	875.9057600000001	1193.98218	698.3703599999999	722.4329200000001	1287.48035	475.37639999999993	726.1258500000001	1285.2428	615.1253699999999	1017.4777200000001	1042.22168	388.33950999999996	1132.5737300000003	942.0449799999999	431.60097999999994	1080.2688	699.0858199999999	413.27703999999994	1029.33655	573.9987799999999	431.34246999999993	970.9751000000001	562.4305999999999	476.70089999999993	1121.3114	530.8658399999999	408.80947999999995	1162.97021	547.0731199999999	493.99053999999995	795.7972400000001	983.34497	711.9744899999998	780.1194500000001	758.11566	673.26123	720.5146500000001	658.35974	694.27625	608.21783	408.66555999999997	635.32794	537.19849	381.6592999999999	587.31598	701.28912	360.37014999999997	667.86975	744.41553	378.51574999999997	591.20294	956.4931000000003	1607.13562	530.7629999999999	929.5781900000002	1431.03247	541.2563499999999	858.6585100000002	1721.24573	531.9622199999999	734.2358400000003	1530.78882	551.3358199999999	765.2302900000002	1619.23352	625.9185199999998	1108.0871600000003	1784.03809	441.6360799999999	1098.6683300000002	1791.6897	605.3812299999998	956.4147300000002	1821.43347	466.9013099999999	955.2194800000002	1827.08472	578.0371099999999	884.3127400000002	1694.25854	389.5873099999999	785.5419900000003	1498.25854	311.19729999999987	742.2319300000003	1409.22974	303.6213099999999	714.8770800000001	1243.15869	285.54513999999995	828.5618900000001	1131.5	303.5250899999999	696.5726900000001	1140.31628	240.97001999999995	774.6424600000001	1071.19922	260.48702999999995	904.0762300000002	1696.79224	684.1839599999998	860.8518700000002	1592.1427	765.7752699999999	775.8928800000002	1409.08032	793.4696699999998	773.9144900000001	1332.43188	789.9902999999999	968.8916000000002	1177.87451	788.2758799999999	847.2919300000001	1137.62085	850.3135399999999	882.5024400000001	1106.42297	834.6860999999999
789	6.567	890.3125000000001	1230.3147	435.46090999999996	879.8054800000001	1194.93469	696.7078199999999	726.8129300000002	1289.75659	474.18023999999997	730.2616000000002	1287.14795	614.1054699999999	1020.5006700000001	1042.71741	387.63036999999997	1134.8773200000003	941.5334499999999	431.2607699999999	1081.03625	698.4698499999998	412.9717999999999	1029.8429	573.9113799999999	431.3383799999999	971.0103800000002	562.4347499999999	476.74099999999993	1121.33728	530.6350099999999	408.66945999999996	1163.20618	546.9855299999999	494.02880999999996	799.3100600000001	984.88861	710.8729899999998	782.0584100000001	759.75336	672.93695	722.2331500000001	660.05713	694.2392	609.302	410.5914599999999	635.828	535.70239	384.81362999999993	588.34277	701.40332	360.43953999999997	667.84033	745.09454	378.52208999999993	591.37579	961.9274900000003	1608.76392	529.3209199999999	934.4599600000003	1432.43127	539.9191899999998	864.2793600000002	1722.69617	530.5518799999999	739.4471400000002	1532.53564	550.3637099999999	770.7923600000003	1620.98962	624.6668099999999	1114.3520500000002	1785.1604	440.6787699999999	1103.8553500000003	1793.06946	603.8662699999999	963.3120100000002	1823.13403	465.3001999999999	960.3471100000003	1829.21069	576.2549399999999	889.7457300000002	1695.75928	388.0190399999999	790.4066200000002	1499.49353	309.6892099999999	747.6023600000002	1410.63879	302.1812099999999	721.3033400000002	1244.21277	284.0997899999999	835.3699300000001	1133.34875	302.00399999999996	703.3996600000002	1141.33472	239.53774999999993	782.0007900000002	1072.81177	258.9376199999999	908.6729100000002	1698.19519	682.2720299999999	866.4975000000002	1593.89661	764.5561499999999	781.1690700000003	1410.97998	792.8015099999999	779.1489300000001	1334.48718	789.5636599999999	974.5739700000001	1180.15002	787.0883799999999	853.0180700000001	1139.74219	849.8618799999999	888.7291900000001	1108.80359	833.9940799999999
790	6.575	894.7953500000001	1232.60559	434.1999799999999	883.8284300000001	1196.05383	695.2836899999999	732.4074700000001	1291.91199	473.5761999999999	734.3704800000002	1289.18921	613.0147099999999	1023.4424400000001	1042.87512	386.82009999999997	1136.6119400000002	940.5534099999999	430.85937999999993	1081.99988	697.6905499999999	412.8655999999999	1030.31775	573.7853999999999	431.43807999999996	971.0265500000002	562.4247399999999	476.67952999999994	1121.31702	530.4848599999999	408.57863999999995	1163.48303	546.9384799999999	494.13634999999994	802.8350200000001	986.80212	709.9611799999999	784.7297400000001	761.90448	672.56628	723.9296300000001	662.21344	694.19452	610.29523	413.08108999999996	636.20465	536.55817	388.9565099999999	589.17377	701.65332	360.53887999999995	667.85822	745.37836	377.8797599999999	591.20721	967.0835600000003	1610.42163	527.8368499999999	939.4353000000002	1434.0459	538.4141199999999	869.4080800000003	1724.63013	529.0224599999999	744.3278800000003	1534.75769	549.2732499999998	776.1397700000002	1622.54248	623.2835099999999	1120.0820300000003	1787.65417	439.4609999999999	1109.3668200000002	1794.52051	602.6607099999999	968.7608000000002	1824.44958	464.2064499999999	964.9711300000002	1829.88623	574.2525599999999	895.1701000000003	1697.39038	386.5885299999999	795.5693400000002	1500.89429	308.2703199999999	753.0868500000003	1412.38586	300.6964399999999	727.3277600000001	1245.59607	282.55047999999994	842.0799600000001	1135.21667	300.65703999999994	710.7282100000001	1142.68848	238.05297999999993	789.4917600000001	1074.83398	257.2881499999999	914.7640400000003	1700.01709	680.7913799999999	872.0190400000002	1596.00427	763.0110499999998	787.0020800000002	1413.1825	792.1375099999999	784.7334600000002	1336.56689	789.2970599999999	980.8515600000001	1182.89355	786.0176999999999	858.5832500000001	1142.19678	849.2940099999998	894.4720500000001	1111.28381	833.4228499999999
791	6.583	899.3469800000001	1235.05627	433.0235599999999	887.8137800000001	1197.70593	693.9672899999999	736.0985100000001	1294.75537	472.2646199999999	738.6831100000002	1291.39673	611.6997699999998	1026.1296400000003	1042.94324	386.0484599999999	1138.5430900000001	939.6169999999998	430.43584999999996	1082.78027	696.8933699999999	412.87233999999995	1030.64294	573.4988999999999	431.45110999999997	971.0767800000001	562.3523599999999	476.57393999999994	1121.20813	530.4887699999999	408.55639999999994	1163.61951	546.8354499999999	494.20681999999994	806.0511500000001	988.88055	709.3051799999998	787.3015100000001	764.26764	672.20007	725.7656300000001	664.89178	694.09973	612.11365	415.97707999999994	636.84167	537.86633	393.43483999999995	590.14172	701.85724	360.51134999999994	667.76166	745.46179	377.1983599999999	591.12897	971.8512000000002	1611.98718	526.3493699999999	944.4432400000002	1435.79407	536.8073699999999	874.3467400000002	1726.7583	527.4164399999999	749.6085200000002	1537.16565	547.9675299999999	781.6961700000003	1625.74768	622.2694099999999	1126.1054700000002	1790.2196	438.87340999999986	1113.1933600000002	1796.45215	601.7137499999999	974.7241800000003	1826.65393	462.1894799999999	970.3333700000002	1831.39551	572.9580699999999	900.7604400000002	1699.24097	385.4015199999999	801.3284300000003	1502.7179	306.8095999999999	758.8473500000002	1414.35217	299.1130699999999	733.5643900000001	1247.33875	281.19399999999996	849.2572000000001	1137.51416	299.2435899999999	717.7810700000001	1144.05017	236.57017999999994	797.1264000000001	1076.953	255.62400999999994	921.1334200000002	1702.0802	679.1455099999998	877.4144300000003	1598.35742	761.4423799999998	793.0232500000002	1415.65051	791.4621599999999	790.8132300000001	1339.04749	788.8829299999999	986.8717700000001	1185.83997	784.9491599999999	864.3375200000002	1144.9928	848.7093499999999	900.0376600000001	1113.88025	833.0549899999999
